<?xml version="1.0" encoding="UTF-8"?>
<svg xmlns="http://www.w3.org/2000/svg"
     xmlns:xlink="http://www.w3.org/1999/xlink"
     xmlns:gadfly="http://www.gadflyjl.org/ns"
     version="1.2"
     width="304.8mm" height="203.2mm" viewBox="0 0 304.8 203.2"
     stroke="none"
     fill="#000000"
     stroke-width="0.3"
     font-size="3.88"
>
<g stroke="#000000" stroke-opacity="0.000" fill="#222831" id="img-49deb04f-1">
  <rect x="0" y="0" width="304.8" height="203.2"/>
</g>
<g class="plotroot xscalable yscalable" id="img-49deb04f-2">
  <g font-size="3.88" font-family="'PT Sans','Helvetica Neue','Helvetica',sans-serif" fill="#A1A1A1" stroke="#000000" stroke-opacity="0.000" id="img-49deb04f-3">
    <text x="159.22" y="191.59" text-anchor="middle" dy="0.6em">SepalLength</text>
  </g>
  <g class="guide xlabels" font-size="2.82" font-family="'PT Sans Caption','Helvetica Neue','Helvetica',sans-serif" fill="#A1A1A1" id="img-49deb04f-4">
    <text x="20.63" y="184.92" text-anchor="middle" dy="0.6em">4</text>
    <text x="89.92" y="184.92" text-anchor="middle" dy="0.6em">5</text>
    <text x="159.22" y="184.92" text-anchor="middle" dy="0.6em">6</text>
    <text x="228.51" y="184.92" text-anchor="middle" dy="0.6em">7</text>
    <text x="297.8" y="184.92" text-anchor="middle" dy="0.6em">8</text>
  </g>
<g clip-path="url(#img-49deb04f-5)">
  <g id="img-49deb04f-6">
    <g pointer-events="visible" opacity="1" fill="#222831" stroke="#000000" stroke-opacity="0.000" class="guide background" id="img-49deb04f-7">
      <rect x="18.63" y="5" width="281.17" height="178.92"/>
    </g>
    <g class="guide ygridlines xfixed" stroke-dasharray="0.5,0.5" stroke-width="0.2" stroke="#575757" id="img-49deb04f-8">
      <path fill="none" d="M18.63,181.91 L 299.8 181.91"/>
      <path fill="none" d="M18.63,146.93 L 299.8 146.93"/>
      <path fill="none" d="M18.63,111.95 L 299.8 111.95"/>
      <path fill="none" d="M18.63,76.97 L 299.8 76.97"/>
      <path fill="none" d="M18.63,41.98 L 299.8 41.98"/>
      <path fill="none" d="M18.63,7 L 299.8 7"/>
    </g>
    <g class="guide xgridlines yfixed" stroke-dasharray="0.5,0.5" stroke-width="0.2" stroke="#575757" id="img-49deb04f-9">
      <path fill="none" d="M20.63,5 L 20.63 183.92"/>
      <path fill="none" d="M89.92,5 L 89.92 183.92"/>
      <path fill="none" d="M159.22,5 L 159.22 183.92"/>
      <path fill="none" d="M228.51,5 L 228.51 183.92"/>
      <path fill="none" d="M297.8,5 L 297.8 183.92"/>
    </g>
    <g class="plotpanel" id="img-49deb04f-10">
      <g class="geometry" id="img-49deb04f-11">
        <g class="color_RGBA{Float32}(0.9960785f0,0.2627451f0,0.39607847f0,1.0f0)" stroke="#B58486" stroke-width="0.3" fill="#FE4365" id="img-49deb04f-12">
          <use xlink:href="#img-49deb04f-13" x="96.85" y="76.97"/>
          <use xlink:href="#img-49deb04f-13" x="82.99" y="111.95"/>
          <use xlink:href="#img-49deb04f-13" x="69.14" y="97.96"/>
          <use xlink:href="#img-49deb04f-13" x="62.21" y="104.95"/>
          <use xlink:href="#img-49deb04f-13" x="89.92" y="69.97"/>
          <use xlink:href="#img-49deb04f-13" x="117.64" y="48.98"/>
          <use xlink:href="#img-49deb04f-13" x="62.21" y="83.96"/>
          <use xlink:href="#img-49deb04f-13" x="89.92" y="83.96"/>
          <use xlink:href="#img-49deb04f-13" x="48.35" y="118.95"/>
          <use xlink:href="#img-49deb04f-13" x="82.99" y="104.95"/>
          <use xlink:href="#img-49deb04f-13" x="117.64" y="62.97"/>
          <use xlink:href="#img-49deb04f-13" x="76.07" y="83.96"/>
          <use xlink:href="#img-49deb04f-13" x="76.07" y="111.95"/>
          <use xlink:href="#img-49deb04f-13" x="41.42" y="111.95"/>
          <use xlink:href="#img-49deb04f-13" x="145.36" y="41.98"/>
          <use xlink:href="#img-49deb04f-13" x="138.43" y="14"/>
          <use xlink:href="#img-49deb04f-13" x="117.64" y="48.98"/>
          <use xlink:href="#img-49deb04f-13" x="96.85" y="76.97"/>
          <use xlink:href="#img-49deb04f-13" x="138.43" y="55.98"/>
          <use xlink:href="#img-49deb04f-13" x="96.85" y="55.98"/>
          <use xlink:href="#img-49deb04f-13" x="117.64" y="83.96"/>
          <use xlink:href="#img-49deb04f-13" x="96.85" y="62.97"/>
          <use xlink:href="#img-49deb04f-13" x="62.21" y="69.97"/>
          <use xlink:href="#img-49deb04f-13" x="96.85" y="90.96"/>
          <use xlink:href="#img-49deb04f-13" x="76.07" y="83.96"/>
          <use xlink:href="#img-49deb04f-13" x="89.92" y="111.95"/>
          <use xlink:href="#img-49deb04f-13" x="89.92" y="83.96"/>
          <use xlink:href="#img-49deb04f-13" x="103.78" y="76.97"/>
          <use xlink:href="#img-49deb04f-13" x="103.78" y="83.96"/>
          <use xlink:href="#img-49deb04f-13" x="69.14" y="97.96"/>
          <use xlink:href="#img-49deb04f-13" x="76.07" y="104.95"/>
          <use xlink:href="#img-49deb04f-13" x="117.64" y="83.96"/>
          <use xlink:href="#img-49deb04f-13" x="103.78" y="34.99"/>
          <use xlink:href="#img-49deb04f-13" x="124.57" y="27.99"/>
          <use xlink:href="#img-49deb04f-13" x="82.99" y="104.95"/>
          <use xlink:href="#img-49deb04f-13" x="89.92" y="97.96"/>
          <use xlink:href="#img-49deb04f-13" x="124.57" y="76.97"/>
          <use xlink:href="#img-49deb04f-13" x="82.99" y="69.97"/>
          <use xlink:href="#img-49deb04f-13" x="48.35" y="111.95"/>
          <use xlink:href="#img-49deb04f-13" x="96.85" y="83.96"/>
          <use xlink:href="#img-49deb04f-13" x="89.92" y="76.97"/>
          <use xlink:href="#img-49deb04f-13" x="55.28" y="160.93"/>
          <use xlink:href="#img-49deb04f-13" x="48.35" y="97.96"/>
          <use xlink:href="#img-49deb04f-13" x="89.92" y="76.97"/>
          <use xlink:href="#img-49deb04f-13" x="96.85" y="55.98"/>
          <use xlink:href="#img-49deb04f-13" x="76.07" y="111.95"/>
          <use xlink:href="#img-49deb04f-13" x="96.85" y="55.98"/>
          <use xlink:href="#img-49deb04f-13" x="62.21" y="97.96"/>
          <use xlink:href="#img-49deb04f-13" x="110.71" y="62.97"/>
          <use xlink:href="#img-49deb04f-13" x="89.92" y="90.96"/>
          <use xlink:href="#img-49deb04f-13" x="228.51" y="97.96"/>
          <use xlink:href="#img-49deb04f-13" x="186.93" y="97.96"/>
          <use xlink:href="#img-49deb04f-13" x="221.58" y="104.95"/>
          <use xlink:href="#img-49deb04f-13" x="124.57" y="160.93"/>
          <use xlink:href="#img-49deb04f-13" x="193.86" y="125.94"/>
          <use xlink:href="#img-49deb04f-13" x="138.43" y="125.94"/>
          <use xlink:href="#img-49deb04f-13" x="180" y="90.96"/>
          <use xlink:href="#img-49deb04f-13" x="82.99" y="153.93"/>
          <use xlink:href="#img-49deb04f-13" x="200.79" y="118.95"/>
          <use xlink:href="#img-49deb04f-13" x="103.78" y="132.94"/>
          <use xlink:href="#img-49deb04f-13" x="89.92" y="181.91"/>
          <use xlink:href="#img-49deb04f-13" x="152.29" y="111.95"/>
          <use xlink:href="#img-49deb04f-13" x="159.22" y="167.92"/>
          <use xlink:href="#img-49deb04f-13" x="166.15" y="118.95"/>
          <use xlink:href="#img-49deb04f-13" x="131.5" y="118.95"/>
          <use xlink:href="#img-49deb04f-13" x="207.72" y="104.95"/>
          <use xlink:href="#img-49deb04f-13" x="131.5" y="111.95"/>
          <use xlink:href="#img-49deb04f-13" x="145.36" y="132.94"/>
          <use xlink:href="#img-49deb04f-13" x="173.07" y="167.92"/>
          <use xlink:href="#img-49deb04f-13" x="131.5" y="146.93"/>
          <use xlink:href="#img-49deb04f-13" x="152.29" y="97.96"/>
          <use xlink:href="#img-49deb04f-13" x="166.15" y="125.94"/>
          <use xlink:href="#img-49deb04f-13" x="180" y="146.93"/>
          <use xlink:href="#img-49deb04f-13" x="166.15" y="125.94"/>
          <use xlink:href="#img-49deb04f-13" x="186.93" y="118.95"/>
          <use xlink:href="#img-49deb04f-13" x="200.79" y="111.95"/>
          <use xlink:href="#img-49deb04f-13" x="214.65" y="125.94"/>
          <use xlink:href="#img-49deb04f-13" x="207.72" y="111.95"/>
          <use xlink:href="#img-49deb04f-13" x="159.22" y="118.95"/>
          <use xlink:href="#img-49deb04f-13" x="138.43" y="139.94"/>
          <use xlink:href="#img-49deb04f-13" x="124.57" y="153.93"/>
          <use xlink:href="#img-49deb04f-13" x="124.57" y="153.93"/>
          <use xlink:href="#img-49deb04f-13" x="145.36" y="132.94"/>
          <use xlink:href="#img-49deb04f-13" x="159.22" y="132.94"/>
          <use xlink:href="#img-49deb04f-13" x="117.64" y="111.95"/>
          <use xlink:href="#img-49deb04f-13" x="159.22" y="83.96"/>
          <use xlink:href="#img-49deb04f-13" x="207.72" y="104.95"/>
          <use xlink:href="#img-49deb04f-13" x="180" y="160.93"/>
          <use xlink:href="#img-49deb04f-13" x="131.5" y="111.95"/>
          <use xlink:href="#img-49deb04f-13" x="124.57" y="146.93"/>
          <use xlink:href="#img-49deb04f-13" x="124.57" y="139.94"/>
          <use xlink:href="#img-49deb04f-13" x="166.15" y="111.95"/>
          <use xlink:href="#img-49deb04f-13" x="145.36" y="139.94"/>
          <use xlink:href="#img-49deb04f-13" x="89.92" y="160.93"/>
          <use xlink:href="#img-49deb04f-13" x="131.5" y="132.94"/>
          <use xlink:href="#img-49deb04f-13" x="138.43" y="111.95"/>
          <use xlink:href="#img-49deb04f-13" x="138.43" y="118.95"/>
          <use xlink:href="#img-49deb04f-13" x="173.07" y="118.95"/>
          <use xlink:href="#img-49deb04f-13" x="96.85" y="146.93"/>
          <use xlink:href="#img-49deb04f-13" x="138.43" y="125.94"/>
          <use xlink:href="#img-49deb04f-13" x="180" y="90.96"/>
          <use xlink:href="#img-49deb04f-13" x="145.36" y="132.94"/>
          <use xlink:href="#img-49deb04f-13" x="235.44" y="111.95"/>
          <use xlink:href="#img-49deb04f-13" x="180" y="118.95"/>
          <use xlink:href="#img-49deb04f-13" x="193.86" y="111.95"/>
          <use xlink:href="#img-49deb04f-13" x="270.08" y="111.95"/>
          <use xlink:href="#img-49deb04f-13" x="82.99" y="146.93"/>
          <use xlink:href="#img-49deb04f-13" x="249.3" y="118.95"/>
          <use xlink:href="#img-49deb04f-13" x="207.72" y="146.93"/>
          <use xlink:href="#img-49deb04f-13" x="242.37" y="69.97"/>
          <use xlink:href="#img-49deb04f-13" x="193.86" y="97.96"/>
          <use xlink:href="#img-49deb04f-13" x="186.93" y="132.94"/>
          <use xlink:href="#img-49deb04f-13" x="214.65" y="111.95"/>
          <use xlink:href="#img-49deb04f-13" x="138.43" y="146.93"/>
          <use xlink:href="#img-49deb04f-13" x="145.36" y="125.94"/>
          <use xlink:href="#img-49deb04f-13" x="186.93" y="97.96"/>
          <use xlink:href="#img-49deb04f-13" x="193.86" y="111.95"/>
          <use xlink:href="#img-49deb04f-13" x="277.01" y="55.98"/>
          <use xlink:href="#img-49deb04f-13" x="277.01" y="139.94"/>
          <use xlink:href="#img-49deb04f-13" x="159.22" y="167.92"/>
          <use xlink:href="#img-49deb04f-13" x="221.58" y="97.96"/>
          <use xlink:href="#img-49deb04f-13" x="131.5" y="125.94"/>
          <use xlink:href="#img-49deb04f-13" x="277.01" y="125.94"/>
          <use xlink:href="#img-49deb04f-13" x="180" y="132.94"/>
          <use xlink:href="#img-49deb04f-13" x="207.72" y="90.96"/>
          <use xlink:href="#img-49deb04f-13" x="242.37" y="97.96"/>
          <use xlink:href="#img-49deb04f-13" x="173.07" y="125.94"/>
          <use xlink:href="#img-49deb04f-13" x="166.15" y="111.95"/>
          <use xlink:href="#img-49deb04f-13" x="186.93" y="125.94"/>
          <use xlink:href="#img-49deb04f-13" x="242.37" y="111.95"/>
          <use xlink:href="#img-49deb04f-13" x="256.22" y="125.94"/>
          <use xlink:href="#img-49deb04f-13" x="290.87" y="55.98"/>
          <use xlink:href="#img-49deb04f-13" x="186.93" y="125.94"/>
          <use xlink:href="#img-49deb04f-13" x="180" y="125.94"/>
          <use xlink:href="#img-49deb04f-13" x="166.15" y="139.94"/>
          <use xlink:href="#img-49deb04f-13" x="277.01" y="111.95"/>
          <use xlink:href="#img-49deb04f-13" x="180" y="83.96"/>
          <use xlink:href="#img-49deb04f-13" x="186.93" y="104.95"/>
          <use xlink:href="#img-49deb04f-13" x="159.22" y="111.95"/>
          <use xlink:href="#img-49deb04f-13" x="221.58" y="104.95"/>
          <use xlink:href="#img-49deb04f-13" x="207.72" y="104.95"/>
          <use xlink:href="#img-49deb04f-13" x="221.58" y="104.95"/>
          <use xlink:href="#img-49deb04f-13" x="145.36" y="132.94"/>
          <use xlink:href="#img-49deb04f-13" x="214.65" y="97.96"/>
          <use xlink:href="#img-49deb04f-13" x="207.72" y="90.96"/>
          <use xlink:href="#img-49deb04f-13" x="207.72" y="111.95"/>
          <use xlink:href="#img-49deb04f-13" x="180" y="146.93"/>
          <use xlink:href="#img-49deb04f-13" x="193.86" y="111.95"/>
          <use xlink:href="#img-49deb04f-13" x="173.07" y="83.96"/>
          <use xlink:href="#img-49deb04f-13" x="152.29" y="111.95"/>
        </g>
      </g>
    </g>
  </g>
</g>
  <g class="guide ylabels" font-size="2.82" font-family="'PT Sans Caption','Helvetica Neue','Helvetica',sans-serif" fill="#A1A1A1" id="img-49deb04f-14">
    <text x="17.63" y="181.91" text-anchor="end" dy="0.35em">2.0</text>
    <text x="17.63" y="146.93" text-anchor="end" dy="0.35em">2.5</text>
    <text x="17.63" y="111.95" text-anchor="end" dy="0.35em">3.0</text>
    <text x="17.63" y="76.97" text-anchor="end" dy="0.35em">3.5</text>
    <text x="17.63" y="41.98" text-anchor="end" dy="0.35em">4.0</text>
    <text x="17.63" y="7" text-anchor="end" dy="0.35em">4.5</text>
  </g>
  <g font-size="3.88" font-family="'PT Sans','Helvetica Neue','Helvetica',sans-serif" fill="#A1A1A1" stroke="#000000" stroke-opacity="0.000" id="img-49deb04f-15">
    <text x="8.81" y="92.46" text-anchor="middle" dy="0.35em" transform="rotate(-90, 8.81, 94.46)">SepalWidth</text>
  </g>
</g>
<defs>
  <clipPath id="img-49deb04f-5">
  <path d="M18.63,5 L 299.8 5 299.8 183.92 18.63 183.92" />
</clipPath>
  <g id="img-49deb04f-13">
    <circle cx="0" cy="0" r="0.9"/>
  </g>
</defs>
</svg>
